<svg width="32" height="32" viewBox="0 0 32 32" fill="none" xmlns="http://www.w3.org/2000/svg">
<circle cx="16.3318" cy="15.6682" r="15.6682" fill="black"/>
<path d="M12.7938 13.3003H10.0976V22.0137H12.7938V13.3003Z" fill="white"/>
<path d="M20.0872 13.1113C19.9878 13.0987 19.8822 13.0924 19.7766 13.0861C18.267 13.0232 17.4159 13.9298 17.1177 14.3201C17.0369 14.4271 16.9996 14.4901 16.9996 14.4901V13.3254H14.4215V22.0388H16.9996H17.1177C17.1177 21.1511 17.1177 20.2697 17.1177 19.382C17.1177 18.9035 17.1177 18.425 17.1177 17.9465C17.1177 17.3547 17.0742 16.7251 17.3662 16.1837C17.6147 15.7304 18.062 15.5037 18.5652 15.5037C20.0562 15.5037 20.0872 16.8699 20.0872 16.9958C20.0872 17.0021 20.0872 17.0084 20.0872 17.0084V22.0766H22.7834V16.3914C22.7834 14.446 21.8081 13.3002 20.0872 13.1113Z" fill="white"/>
<path d="M11.4457 12.1731C12.3103 12.1731 13.0113 11.4628 13.0113 10.5865C13.0113 9.71032 12.3103 9 11.4457 9C10.5811 9 9.88019 9.71032 9.88019 10.5865C9.88019 11.4628 10.5811 12.1731 11.4457 12.1731Z" fill="white"/>
</svg>
