<svg width="243" height="51" viewBox="0 0 243 51" fill="none" xmlns="http://www.w3.org/2000/svg">
<path d="M59.8678 31.2182C58.8565 31.2182 57.9279 31.0225 57.0818 30.6309C56.2357 30.2394 55.5443 29.7036 55.0078 29.0236C54.4712 28.323 54.1617 27.5297 54.0791 26.6436V20.3073C54.1617 19.4212 54.4712 18.6176 55.0078 17.8964C55.5443 17.1752 56.2357 16.6085 57.0818 16.1964C57.9279 15.7843 58.8565 15.5782 59.8678 15.5782C61.2917 15.5782 62.5506 15.9182 63.6443 16.5982C64.7587 17.2782 65.6255 18.2055 66.2446 19.38C66.8844 20.5545 67.2042 21.8939 67.2042 23.3982C67.2042 24.9025 66.8844 26.2418 66.2446 27.4164C65.6255 28.5909 64.7587 29.5182 63.6443 30.1982C62.5506 30.8782 61.2917 31.2182 59.8678 31.2182ZM51.2003 37.2455V15.8873H55.9364V19.7509L55.1625 23.3982L55.8745 27.0455V37.2455H51.2003ZM59.001 26.9527C59.682 26.9527 60.2702 26.7982 60.7655 26.4891C61.2814 26.18 61.6838 25.7576 61.9727 25.2218C62.2616 24.6861 62.4061 24.0782 62.4061 23.3982C62.4061 22.6976 62.2616 22.0794 61.9727 21.5436C61.6838 21.0079 61.2814 20.5957 60.7655 20.3073C60.2702 19.9982 59.6923 19.8436 59.032 19.8436C58.3716 19.8436 57.7835 19.9982 57.2675 20.3073C56.7722 20.5957 56.3801 21.0079 56.0912 21.5436C55.8023 22.0794 55.6578 22.6976 55.6578 23.3982C55.6578 24.0782 55.7919 24.6861 56.0603 25.2218C56.3491 25.7576 56.7516 26.18 57.2675 26.4891C57.7835 26.7982 58.3612 26.9527 59.001 26.9527ZM75.8942 31.2182C74.5115 31.2182 73.2733 30.8782 72.1796 30.1982C71.1064 29.5182 70.25 28.5909 69.6103 27.4164C68.9912 26.2418 68.6816 24.9025 68.6816 23.3982C68.6816 21.8939 68.9912 20.5545 69.6103 19.38C70.25 18.2055 71.1064 17.2782 72.1796 16.5982C73.2733 15.9182 74.5115 15.5782 75.8942 15.5782C76.9054 15.5782 77.8134 15.7739 78.6182 16.1655C79.444 16.557 80.1142 17.103 80.6303 17.8036C81.1465 18.4836 81.4352 19.2666 81.4971 20.1527V26.6436C81.4352 27.5297 81.1465 28.323 80.6303 29.0236C80.1351 29.7036 79.4749 30.2394 78.6492 30.6309C77.8235 31.0225 76.9054 31.2182 75.8942 31.2182ZM76.8539 26.9527C77.8652 26.9527 78.6801 26.623 79.2993 25.9636C79.9184 25.2836 80.2279 24.4285 80.2279 23.3982C80.2279 22.6976 80.0832 22.0794 79.7945 21.5436C79.526 21.0079 79.1344 20.5957 78.6182 20.3073C78.1229 19.9982 77.5449 19.8436 76.8848 19.8436C76.2244 19.8436 75.6362 19.9982 75.1204 20.3073C74.6251 20.5957 74.2226 21.0079 73.9131 21.5436C73.6241 22.0794 73.4797 22.6976 73.4797 23.3982C73.4797 24.0782 73.6241 24.6861 73.9131 25.2218C74.202 25.7576 74.6044 26.18 75.1204 26.4891C75.6362 26.7982 76.2141 26.9527 76.8539 26.9527ZM80.0422 30.9091V26.86L80.7542 23.2127L80.0422 19.5655V15.8873H84.6855V30.9091H80.0422ZM94.7065 31.2491C93.3236 31.2491 92.0962 30.9709 91.0228 30.4146C89.9704 29.8376 89.1446 29.0546 88.5464 28.0655C87.9482 27.0557 87.6487 25.9018 87.6487 24.6036V15.8873H92.3849V24.5418C92.3849 25.057 92.4677 25.5 92.6325 25.8709C92.8183 26.2418 93.0868 26.5303 93.4374 26.7364C93.7879 26.9425 94.2113 27.0455 94.7065 27.0455C95.4085 27.0455 95.9657 26.8291 96.3781 26.3964C96.7906 25.943 96.9972 25.3248 96.9972 24.5418V15.8873H101.733V24.5727C101.733 25.8915 101.434 27.0557 100.836 28.0655C100.237 29.0546 99.4118 29.8376 98.3593 30.4146C97.3068 30.9709 96.0895 31.2491 94.7065 31.2491ZM104.707 30.9091V8.46909H109.444V30.9091H104.707ZM112.778 30.9091V15.8873H117.514V30.9091H112.778ZM115.162 13.8164C114.419 13.8164 113.8 13.5691 113.305 13.0745C112.83 12.5594 112.593 11.9412 112.593 11.22C112.593 10.4782 112.83 9.86 113.305 9.36546C113.8 8.87091 114.419 8.62364 115.162 8.62364C115.905 8.62364 116.514 8.87091 116.988 9.36546C117.463 9.86 117.7 10.4782 117.7 11.22C117.7 11.9412 117.463 12.5594 116.988 13.0745C116.514 13.5691 115.905 13.8164 115.162 13.8164ZM127.536 31.2491C126.153 31.2491 124.926 30.9709 123.853 30.4146C122.8 29.8376 121.974 29.0546 121.376 28.0655C120.778 27.0557 120.478 25.9018 120.478 24.6036V15.8873H125.215V24.5418C125.215 25.057 125.297 25.5 125.462 25.8709C125.648 26.2418 125.917 26.5303 126.267 26.7364C126.618 26.9425 127.041 27.0455 127.536 27.0455C128.238 27.0455 128.795 26.8291 129.208 26.3964C129.62 25.943 129.827 25.3248 129.827 24.5418V15.8873H134.563V24.5727C134.563 25.8915 134.264 27.0557 133.665 28.0655C133.067 29.0546 132.242 29.8376 131.189 30.4146C130.137 30.9709 128.919 31.2491 127.536 31.2491ZM143.016 31.28C142.129 31.28 141.252 31.1666 140.385 30.94C139.538 30.7134 138.744 30.3939 138.002 29.9818C137.279 29.5491 136.66 29.0546 136.144 28.4982L138.837 25.7782C139.333 26.3139 139.921 26.7364 140.602 27.0455C141.283 27.3339 142.026 27.4782 142.831 27.4782C143.388 27.4782 143.81 27.3957 144.1 27.2309C144.409 27.0661 144.564 26.8394 144.564 26.5509C144.564 26.18 144.378 25.9018 144.007 25.7164C143.656 25.5103 143.202 25.3352 142.645 25.1909C142.088 25.0261 141.5 24.8509 140.88 24.6655C140.261 24.48 139.673 24.2225 139.116 23.8927C138.559 23.563 138.104 23.1097 137.754 22.5327C137.403 21.9352 137.228 21.183 137.228 20.2764C137.228 19.3079 137.475 18.4734 137.971 17.7727C138.466 17.0515 139.167 16.4848 140.076 16.0727C140.983 15.6606 142.046 15.4545 143.264 15.4545C144.543 15.4545 145.72 15.6812 146.793 16.1345C147.886 16.5673 148.774 17.2164 149.455 18.0818L146.762 20.8018C146.287 20.2455 145.75 19.8539 145.152 19.6273C144.574 19.4006 144.007 19.2873 143.45 19.2873C142.913 19.2873 142.51 19.3697 142.242 19.5345C141.974 19.6788 141.84 19.8952 141.84 20.1836C141.84 20.4927 142.015 20.74 142.366 20.9255C142.717 21.1109 143.171 21.2757 143.728 21.42C144.286 21.5643 144.874 21.7394 145.493 21.9455C146.112 22.1515 146.7 22.4297 147.257 22.78C147.814 23.1303 148.268 23.6043 148.619 24.2018C148.97 24.7788 149.146 25.5412 149.146 26.4891C149.146 27.9521 148.588 29.1164 147.474 29.9818C146.38 30.8473 144.894 31.28 143.016 31.28ZM151.715 30.9091V15.8873H156.451V30.9091H151.715ZM161.342 30.9091V22.1309C161.342 21.3685 161.104 20.7812 160.63 20.3691C160.176 19.9364 159.608 19.72 158.927 19.72C158.452 19.72 158.03 19.823 157.658 20.0291C157.287 20.2145 156.987 20.4825 156.761 20.8327C156.554 21.183 156.451 21.6157 156.451 22.1309L154.625 21.3273C154.625 20.1321 154.882 19.1121 155.398 18.2673C155.914 17.4018 156.616 16.7425 157.503 16.2891C158.39 15.8152 159.392 15.5782 160.506 15.5782C161.559 15.5782 162.497 15.8152 163.323 16.2891C164.169 16.763 164.84 17.4225 165.335 18.2673C165.83 19.1121 166.078 20.1218 166.078 21.2964V30.9091H161.342ZM170.969 30.9091V22.1309C170.969 21.3685 170.731 20.7812 170.257 20.3691C169.803 19.9364 169.236 19.72 168.555 19.72C168.079 19.72 167.657 19.823 167.285 20.0291C166.914 20.2145 166.614 20.4825 166.388 20.8327C166.181 21.183 166.078 21.6157 166.078 22.1309L163.354 21.76C163.395 20.4825 163.695 19.3903 164.252 18.4836C164.829 17.5564 165.583 16.8455 166.511 16.3509C167.46 15.8357 168.524 15.5782 169.7 15.5782C170.855 15.5782 171.877 15.8255 172.764 16.32C173.672 16.7939 174.384 17.4843 174.9 18.3909C175.437 19.277 175.705 20.3485 175.705 21.6055V30.9091H170.969ZM185.024 31.2182C183.641 31.2182 182.403 30.8782 181.31 30.1982C180.236 29.5182 179.38 28.5909 178.74 27.4164C178.121 26.2418 177.812 24.9025 177.812 23.3982C177.812 21.8939 178.121 20.5545 178.74 19.38C179.38 18.2055 180.236 17.2782 181.31 16.5982C182.403 15.9182 183.641 15.5782 185.024 15.5782C186.035 15.5782 186.944 15.7739 187.748 16.1655C188.573 16.557 189.244 17.103 189.761 17.8036C190.276 18.4836 190.565 19.2666 190.627 20.1527V26.6436C190.565 27.5297 190.276 28.323 189.761 29.0236C189.265 29.7036 188.604 30.2394 187.779 30.6309C186.954 31.0225 186.035 31.2182 185.024 31.2182ZM185.984 26.9527C186.995 26.9527 187.81 26.623 188.429 25.9636C189.049 25.2836 189.358 24.4285 189.358 23.3982C189.358 22.6976 189.213 22.0794 188.925 21.5436C188.656 21.0079 188.264 20.5957 187.748 20.3073C187.253 19.9982 186.675 19.8436 186.015 19.8436C185.354 19.8436 184.766 19.9982 184.25 20.3073C183.755 20.5957 183.353 21.0079 183.043 21.5436C182.754 22.0794 182.61 22.6976 182.61 23.3982C182.61 24.0782 182.754 24.6861 183.043 25.2218C183.332 25.7576 183.734 26.18 184.25 26.4891C184.766 26.7982 185.344 26.9527 185.984 26.9527ZM189.172 30.9091V26.86L189.884 23.2127L189.172 19.5655V15.8873H193.816V30.9091H189.172ZM206.778 30.9091L201.515 23.12L206.747 15.8873H212.04L205.725 24.0164L205.88 22.0691L212.35 30.9091H206.778ZM197.15 30.9091V8.46909H201.887V30.9091H197.15ZM220.813 31.2491C219.183 31.2491 217.728 30.9194 216.448 30.26C215.19 29.58 214.199 28.6425 213.476 27.4473C212.754 26.2521 212.393 24.9025 212.393 23.3982C212.393 21.8939 212.744 20.5545 213.445 19.38C214.168 18.1848 215.138 17.2473 216.355 16.5673C217.573 15.8873 218.945 15.5473 220.472 15.5473C221.958 15.5473 223.269 15.8666 224.404 16.5055C225.539 17.1443 226.426 18.0303 227.066 19.1636C227.727 20.297 228.056 21.5952 228.056 23.0582C228.056 23.3261 228.036 23.6145 227.994 23.9236C227.974 24.2121 227.922 24.5521 227.84 24.9436L214.869 24.9745V21.7291L225.827 21.6982L223.784 23.0582C223.764 22.1927 223.63 21.4818 223.382 20.9255C223.134 20.3485 222.763 19.9157 222.268 19.6273C221.793 19.3182 221.205 19.1636 220.503 19.1636C219.76 19.1636 219.11 19.3388 218.553 19.6891C218.017 20.0188 217.593 20.4927 217.284 21.1109C216.995 21.7291 216.85 22.4812 216.85 23.3673C216.85 24.2534 217.005 25.0157 217.315 25.6546C217.645 26.2727 218.099 26.757 218.677 27.1073C219.276 27.437 219.977 27.6018 220.782 27.6018C221.525 27.6018 222.196 27.4782 222.794 27.2309C223.393 26.963 223.919 26.5715 224.373 26.0564L226.973 28.6527C226.23 29.5182 225.332 30.1673 224.28 30.6C223.227 31.0327 222.072 31.2491 220.813 31.2491ZM235.821 31.28C234.935 31.28 234.057 31.1666 233.19 30.94C232.344 30.7134 231.55 30.3939 230.807 29.9818C230.085 29.5491 229.465 29.0546 228.949 28.4982L231.642 25.7782C232.138 26.3139 232.726 26.7364 233.407 27.0455C234.088 27.3339 234.831 27.4782 235.636 27.4782C236.193 27.4782 236.616 27.3957 236.905 27.2309C237.214 27.0661 237.369 26.8394 237.369 26.5509C237.369 26.18 237.183 25.9018 236.812 25.7164C236.461 25.5103 236.007 25.3352 235.45 25.1909C234.893 25.0261 234.305 24.8509 233.686 24.6655C233.066 24.48 232.478 24.2225 231.921 23.8927C231.364 23.563 230.91 23.1097 230.559 22.5327C230.208 21.9352 230.033 21.183 230.033 20.2764C230.033 19.3079 230.28 18.4734 230.776 17.7727C231.271 17.0515 231.973 16.4848 232.881 16.0727C233.789 15.6606 234.852 15.4545 236.069 15.4545C237.349 15.4545 238.525 15.6812 239.598 16.1345C240.692 16.5673 241.579 17.2164 242.26 18.0818L239.567 20.8018C239.093 20.2455 238.556 19.8539 237.957 19.6273C237.38 19.4006 236.812 19.2873 236.255 19.2873C235.719 19.2873 235.316 19.3697 235.048 19.5345C234.78 19.6788 234.645 19.8952 234.645 20.1836C234.645 20.4927 234.821 20.74 235.171 20.9255C235.523 21.1109 235.976 21.2757 236.533 21.42C237.091 21.5643 237.679 21.7394 238.298 21.9455C238.917 22.1515 239.505 22.4297 240.062 22.78C240.62 23.1303 241.074 23.6043 241.424 24.2018C241.776 24.7788 241.951 25.5412 241.951 26.4891C241.951 27.9521 241.393 29.1164 240.279 29.9818C239.186 30.8473 237.7 31.28 235.821 31.28Z" fill="#2A2D34"/>
<path d="M84.8588 49.4545V48.3727H89.1926C89.4913 48.3727 89.6414 48.2182 89.6414 47.9091V45.1582H89.4248C89.3211 45.3745 89.1616 45.5909 88.945 45.8073C88.7383 46.0134 88.4651 46.1834 88.1246 46.3173C87.7841 46.4409 87.3554 46.5027 86.84 46.5027C86.2928 46.5027 85.7875 46.3843 85.3232 46.1473C84.8689 45.9103 84.5075 45.56 84.2397 45.0964C83.9812 44.6327 83.8528 44.0661 83.8528 43.3964V38.8064H85.0755V43.3036C85.0755 44.0455 85.2613 44.5864 85.6327 44.9264C86.0142 45.2664 86.525 45.4364 87.165 45.4364C87.8871 45.4364 88.4806 45.1994 88.945 44.7255C89.4093 44.2515 89.6414 43.5457 89.6414 42.6082V38.8064H90.8642V48.1255C90.8642 48.5375 90.745 48.8621 90.5082 49.0991C90.2807 49.3361 89.9456 49.4545 89.5021 49.4545H84.8588ZM96.9206 46.58C96.1568 46.58 95.4812 46.4203 94.893 46.1009C94.3149 45.7815 93.8607 45.3334 93.531 44.7564C93.2106 44.1691 93.0512 43.4788 93.0512 42.6855V42.4845C93.0512 41.7015 93.2106 41.0164 93.531 40.4291C93.8607 39.8418 94.3149 39.3885 94.893 39.0691C95.4812 38.7497 96.1568 38.59 96.9206 38.59C97.6837 38.59 98.3546 38.7497 98.9327 39.0691C99.5209 39.3885 99.9744 39.8418 100.295 40.4291C100.624 41.0164 100.79 41.7015 100.79 42.4845V42.6855C100.79 43.4788 100.624 44.1691 100.295 44.7564C99.9744 45.3334 99.5209 45.7815 98.9327 46.1009C98.3546 46.4203 97.6837 46.58 96.9206 46.58ZM96.9206 45.4827C97.7255 45.4827 98.3647 45.2303 98.8399 44.7255C99.3243 44.2103 99.5673 43.52 99.5673 42.6545V42.5155C99.5673 41.65 99.3243 40.9648 98.8399 40.46C98.3647 39.9448 97.7255 39.6873 96.9206 39.6873C96.1258 39.6873 95.4858 39.9448 95.0014 40.46C94.5162 40.9648 94.2739 41.65 94.2739 42.5155V42.6545C94.2739 43.52 94.5162 44.2103 95.0014 44.7255C95.4858 45.2303 96.1258 45.4827 96.9206 45.4827ZM105.885 46.5027C105.337 46.5027 104.832 46.3843 104.368 46.1473C103.913 45.9103 103.553 45.56 103.284 45.0964C103.027 44.6224 102.897 44.0506 102.897 43.3809V38.8064H104.12V43.2882C104.12 44.0403 104.306 44.5864 104.677 44.9264C105.059 45.2664 105.57 45.4364 106.21 45.4364C106.932 45.4364 107.525 45.1994 107.99 44.7255C108.454 44.2515 108.686 43.5457 108.686 42.6082V38.8064H109.909V46.3636H108.717V45.0809H108.5C108.335 45.4415 108.051 45.7712 107.649 46.07C107.247 46.3585 106.658 46.5027 105.885 46.5027ZM112.467 46.3636V38.8064H113.659V39.7336H113.876C114.01 39.4039 114.216 39.1618 114.495 39.0073C114.773 38.8527 115.139 38.7755 115.594 38.7755H116.491V39.8882H115.516C114.969 39.8882 114.526 40.0427 114.185 40.3518C113.855 40.6506 113.69 41.1194 113.69 41.7582V46.3636H112.467ZM122.277 46.3636V38.8064H123.469V40.0891H123.685C123.85 39.7285 124.129 39.4039 124.521 39.1155C124.924 38.8166 125.512 38.6673 126.286 38.6673C126.853 38.6673 127.358 38.7857 127.803 39.0227C128.256 39.2597 128.617 39.61 128.886 40.0736C129.154 40.5373 129.288 41.1091 129.288 41.7891V46.3636H128.066V41.8818C128.066 41.1297 127.874 40.5836 127.493 40.2436C127.121 39.9036 126.615 39.7336 125.976 39.7336C125.243 39.7336 124.645 39.9706 124.181 40.4445C123.726 40.9185 123.5 41.6243 123.5 42.5618V46.3636H122.277ZM135.236 46.58C134.473 46.58 133.802 46.4203 133.224 46.1009C132.646 45.7712 132.197 45.3127 131.877 44.7255C131.557 44.1382 131.397 43.4582 131.397 42.6855V42.5C131.397 41.717 131.557 41.0318 131.877 40.4445C132.197 39.8573 132.641 39.4039 133.208 39.0845C133.776 38.7548 134.426 38.59 135.158 38.59C135.87 38.59 136.5 38.7445 137.047 39.0536C137.594 39.3524 138.022 39.7852 138.331 40.3518C138.641 40.9185 138.796 41.583 138.796 42.3455V42.9018H132.62C132.651 43.7157 132.914 44.3545 133.409 44.8182C133.905 45.2715 134.524 45.4982 135.267 45.4982C135.917 45.4982 136.417 45.3488 136.768 45.05C137.119 44.7512 137.387 44.3957 137.573 43.9836L138.625 44.4936C138.471 44.813 138.254 45.1324 137.975 45.4518C137.707 45.7712 137.351 46.0391 136.907 46.2555C136.474 46.4718 135.917 46.58 135.236 46.58ZM132.635 41.8973H137.557C137.516 41.1966 137.274 40.6506 136.83 40.2591C136.397 39.8675 135.839 39.6718 135.158 39.6718C134.467 39.6718 133.9 39.8675 133.456 40.2591C133.012 40.6506 132.739 41.1966 132.635 41.8973ZM139.795 46.3636L142.829 42.5309L139.888 38.8064H141.359L143.618 41.7273H143.835L146.079 38.8064H147.565L144.609 42.5309L147.643 46.3636H146.157L143.835 43.35H143.618L141.297 46.3636H139.795ZM152.376 46.3636C151.942 46.3636 151.606 46.2452 151.37 46.0082C151.142 45.7712 151.029 45.4466 151.029 45.0345V39.8727H148.754V38.8064H151.029V36.1173H152.252V38.8064H154.728V39.8727H152.252V44.8491C152.252 45.1582 152.401 45.3127 152.701 45.3127H154.388V46.3636H152.376ZM160.684 46.3636V38.8064H161.876V39.7491H162.093C162.237 39.4812 162.474 39.2339 162.805 39.0073C163.134 38.7806 163.599 38.6673 164.198 38.6673C164.786 38.6673 165.26 38.7961 165.622 39.0536C165.993 39.3112 166.261 39.6255 166.426 39.9964H166.643C166.818 39.6255 167.081 39.3112 167.432 39.0536C167.793 38.7961 168.294 38.6673 168.934 38.6673C169.439 38.6673 169.883 38.7703 170.265 38.9764C170.646 39.1824 170.946 39.4812 171.163 39.8727C171.389 40.2539 171.503 40.7124 171.503 41.2482V46.3636H170.28V41.3564C170.28 40.8515 170.13 40.4548 169.831 40.1664C169.542 39.8675 169.135 39.7182 168.609 39.7182C168.052 39.7182 167.592 39.8985 167.231 40.2591C166.88 40.6197 166.705 41.14 166.705 41.82V46.3636H165.482V41.3564C165.482 40.8515 165.332 40.4548 165.033 40.1664C164.744 39.8675 164.337 39.7182 163.811 39.7182C163.253 39.7182 162.794 39.8985 162.433 40.2591C162.082 40.6197 161.907 41.14 161.907 41.82V46.3636H160.684ZM177.498 46.58C176.735 46.58 176.059 46.4203 175.471 46.1009C174.893 45.7815 174.438 45.3334 174.109 44.7564C173.788 44.1691 173.629 43.4788 173.629 42.6855V42.4845C173.629 41.7015 173.788 41.0164 174.109 40.4291C174.438 39.8418 174.893 39.3885 175.471 39.0691C176.059 38.7497 176.735 38.59 177.498 38.59C178.261 38.59 178.932 38.7497 179.51 39.0691C180.099 39.3885 180.552 39.8418 180.872 40.4291C181.202 41.0164 181.368 41.7015 181.368 42.4845V42.6855C181.368 43.4788 181.202 44.1691 180.872 44.7564C180.552 45.3334 180.099 45.7815 179.51 46.1009C178.932 46.4203 178.261 46.58 177.498 46.58ZM177.498 45.4827C178.303 45.4827 178.942 45.2303 179.418 44.7255C179.902 44.2103 180.145 43.52 180.145 42.6545V42.5155C180.145 41.65 179.902 40.9648 179.418 40.46C178.942 39.9448 178.303 39.6873 177.498 39.6873C176.704 39.6873 176.064 39.9448 175.579 40.46C175.094 40.9648 174.852 41.65 174.852 42.5155V42.6545C174.852 43.52 175.094 44.2103 175.579 44.7255C176.064 45.2303 176.704 45.4827 177.498 45.4827ZM185.17 46.3636L182.461 38.8064H183.761L186.037 45.4518H186.253L188.529 38.8064H189.829L187.12 46.3636H185.17ZM194.744 46.58C193.98 46.58 193.31 46.4203 192.731 46.1009C192.153 45.7712 191.705 45.3127 191.385 44.7255C191.065 44.1382 190.905 43.4582 190.905 42.6855V42.5C190.905 41.717 191.065 41.0318 191.385 40.4445C191.705 39.8573 192.149 39.4039 192.716 39.0845C193.283 38.7548 193.933 38.59 194.666 38.59C195.378 38.59 196.007 38.7445 196.554 39.0536C197.102 39.3524 197.53 39.7852 197.839 40.3518C198.149 40.9185 198.303 41.583 198.303 42.3455V42.9018H192.128C192.159 43.7157 192.422 44.3545 192.917 44.8182C193.413 45.2715 194.032 45.4982 194.775 45.4982C195.425 45.4982 195.925 45.3488 196.276 45.05C196.626 44.7512 196.895 44.3957 197.081 43.9836L198.133 44.4936C197.978 44.813 197.762 45.1324 197.483 45.4518C197.215 45.7712 196.859 46.0391 196.415 46.2555C195.982 46.4718 195.425 46.58 194.744 46.58ZM192.143 41.8973H197.065C197.024 41.1966 196.781 40.6506 196.338 40.2591C195.904 39.8675 195.347 39.6718 194.666 39.6718C193.975 39.6718 193.407 39.8675 192.964 40.2591C192.52 40.6506 192.246 41.1966 192.143 41.8973ZM207.894 46.58C207.161 46.58 206.501 46.4255 205.913 46.1164C205.335 45.797 204.876 45.3436 204.536 44.7564C204.205 44.1691 204.04 43.4736 204.04 42.67V42.5C204.04 41.6861 204.205 40.9906 204.536 40.4136C204.876 39.8264 205.335 39.3782 205.913 39.0691C206.501 38.7497 207.161 38.59 207.894 38.59C208.616 38.59 209.23 38.7239 209.736 38.9918C210.251 39.2597 210.654 39.6152 210.943 40.0582C211.242 40.5012 211.433 40.9752 211.516 41.48L210.324 41.7273C210.272 41.3564 210.149 41.0164 209.953 40.7073C209.767 40.3982 209.504 40.1509 209.163 39.9655C208.823 39.78 208.405 39.6873 207.91 39.6873C207.404 39.6873 206.95 39.8006 206.548 40.0273C206.155 40.2539 205.84 40.5785 205.604 41.0009C205.376 41.4234 205.263 41.9282 205.263 42.5155V42.6545C205.263 43.2418 205.376 43.7466 205.604 44.1691C205.84 44.5915 206.155 44.9161 206.548 45.1427C206.95 45.3694 207.404 45.4827 207.91 45.4827C208.663 45.4827 209.235 45.287 209.628 44.8955C210.03 44.5039 210.278 44.0197 210.371 43.4427L211.578 43.7055C211.464 44.2 211.258 44.6688 210.959 45.1118C210.659 45.5548 210.251 45.9103 209.736 46.1782C209.23 46.4461 208.616 46.58 207.894 46.58ZM213.662 46.3636V35.5455H214.885V46.3636H213.662ZM220.923 46.58C220.159 46.58 219.489 46.4203 218.91 46.1009C218.332 45.7712 217.884 45.3127 217.564 44.7255C217.244 44.1382 217.084 43.4582 217.084 42.6855V42.5C217.084 41.717 217.244 41.0318 217.564 40.4445C217.884 39.8573 218.328 39.4039 218.895 39.0845C219.462 38.7548 220.112 38.59 220.845 38.59C221.557 38.59 222.186 38.7445 222.733 39.0536C223.281 39.3524 223.709 39.7852 224.018 40.3518C224.328 40.9185 224.482 41.583 224.482 42.3455V42.9018H218.307C218.338 43.7157 218.601 44.3545 219.096 44.8182C219.592 45.2715 220.211 45.4982 220.954 45.4982C221.604 45.4982 222.104 45.3488 222.455 45.05C222.805 44.7512 223.074 44.3957 223.26 43.9836L224.312 44.4936C224.157 44.813 223.941 45.1324 223.662 45.4518C223.394 45.7712 223.038 46.0391 222.594 46.2555C222.161 46.4718 221.604 46.58 220.923 46.58ZM218.322 41.8973H223.244C223.203 41.1966 222.96 40.6506 222.517 40.2591C222.083 39.8675 221.526 39.6718 220.845 39.6718C220.154 39.6718 219.586 39.8675 219.143 40.2591C218.699 40.6506 218.425 41.1966 218.322 41.8973ZM228.937 46.58C228.411 46.58 227.931 46.4873 227.498 46.3018C227.064 46.1164 226.724 45.8485 226.476 45.4982C226.228 45.1479 226.105 44.7203 226.105 44.2155C226.105 43.7003 226.228 43.2779 226.476 42.9482C226.724 42.6082 227.064 42.3557 227.498 42.1909C227.931 42.0157 228.416 41.9282 228.952 41.9282H231.506V41.3718C231.506 40.8361 231.346 40.4136 231.026 40.1045C230.717 39.7955 230.253 39.6409 229.633 39.6409C229.024 39.6409 228.55 39.7903 228.209 40.0891C227.869 40.3775 227.637 40.7691 227.513 41.2636L226.368 40.8927C226.491 40.4703 226.687 40.0891 226.956 39.7491C227.224 39.3988 227.58 39.1206 228.024 38.9145C228.478 38.6982 229.02 38.59 229.649 38.59C230.619 38.59 231.372 38.8424 231.909 39.3473C232.445 39.8418 232.714 40.5424 232.714 41.4491V44.8645C232.714 45.1736 232.858 45.3282 233.147 45.3282H233.843V46.3636H232.775C232.435 46.3636 232.162 46.2709 231.955 46.0855C231.748 45.8897 231.646 45.6321 231.646 45.3127V45.2355H231.46C231.346 45.4312 231.191 45.6373 230.995 45.8536C230.81 46.0597 230.552 46.2297 230.222 46.3636C229.891 46.5079 229.463 46.58 228.937 46.58ZM229.076 45.5291C229.798 45.5291 230.382 45.3179 230.825 44.8955C231.279 44.4627 231.506 43.86 231.506 43.0873V42.9173H228.999C228.514 42.9173 228.111 43.0255 227.792 43.2418C227.482 43.4479 227.327 43.7621 227.327 44.1845C227.327 44.607 227.487 44.9366 227.807 45.1736C228.138 45.4106 228.56 45.5291 229.076 45.5291ZM235.518 46.3636V38.8064H236.71V39.7336H236.927C237.06 39.4039 237.267 39.1618 237.546 39.0073C237.824 38.8527 238.19 38.7755 238.645 38.7755H239.542V39.8882H238.567C238.02 39.8882 237.577 40.0427 237.236 40.3518C236.906 40.6506 236.741 41.1194 236.741 41.7582V46.3636H235.518ZM241.035 46.58C240.736 46.58 240.483 46.4821 240.277 46.2864C240.081 46.0906 239.983 45.8382 239.983 45.5291C239.983 45.22 240.081 44.9675 240.277 44.7718C240.483 44.5761 240.736 44.4782 241.035 44.4782C241.345 44.4782 241.598 44.5761 241.794 44.7718C241.99 44.9675 242.088 45.22 242.088 45.5291C242.088 45.8382 241.99 46.0906 241.794 46.2864C241.598 46.4821 241.345 46.58 241.035 46.58Z" fill="#F45D48"/>
<path d="M38.3071 10.7763C38.2839 8.85599 36.7061 7.31803 34.7829 7.34116L3.4428 7.71818C1.51961 7.74133 -0.0206545 9.31677 0.00251633 11.2371C0.0256872 13.1574 1.60352 14.6953 3.5267 14.6722L31.3845 14.3371L31.7202 42.1533C31.7434 44.0736 33.3212 45.6115 35.2444 45.5884C37.1675 45.5653 38.7078 43.9897 38.6847 42.0694L38.3071 10.7763ZM3.09553 43.2727L5.5875 45.7017L37.3168 13.2472L34.8248 10.8182L32.3328 8.38919L0.603554 40.8437L3.09553 43.2727Z" fill="#F45D48"/>
</svg>
